<svg width="123" height="123" viewBox="0 0 123 123" fill="none" xmlns="http://www.w3.org/2000/svg">
<circle cx="61.3621" cy="61.3028" r="60.7237" fill="black"/>
<circle cx="61.3621" cy="61.3028" r="40.4824" fill="white"/>
<path fill-rule="evenodd" clip-rule="evenodd" d="M65.1384 34.1471C65.4627 34.37 65.6556 34.5315 65.8756 34.6486C67.5073 35.5288 67.6188 35.5073 68.6561 33.9342C70.7235 30.8052 72.7881 27.6733 74.8327 24.5299C75.87 22.9368 75.8515 22.9197 77.5746 23.6555C78.1461 23.8998 78.7076 24.1756 79.4349 24.5114C77.2574 28.8535 75.1156 33.1213 72.9496 37.4419C73.2796 37.642 73.5139 37.812 73.7683 37.9306C75.4857 38.735 75.5 38.7278 76.5658 37.1119C78.8133 33.7071 81.0608 30.3008 83.4883 26.6274C85.5087 28.2591 87.569 29.6536 89.3092 31.3724C101.368 43.2885 105.05 57.5193 100.501 73.779C98.3449 81.4816 93.8642 87.8226 87.789 93.0148C85.8473 94.6736 84.0184 94.8851 81.871 93.642C78.8162 91.876 76.4158 89.3942 74.7627 86.2923C73.3153 83.5791 71.1864 81.5059 68.899 79.587C65.4141 76.6608 61.8279 73.8547 58.2873 70.9971C58.0987 70.8457 57.9301 70.6699 57.6115 70.3756C58.5616 69.7483 59.4232 69.1754 60.2891 68.611C63.6467 66.4135 66.8929 64.096 69.4319 60.9113C73.4854 55.8319 73.011 49.2723 69.3647 44.3887C66.5757 40.6567 63.0995 37.8877 58.2645 37.3705C53.1122 36.8204 48.6458 39.6323 47.5714 44.2358C46.7141 47.9064 47.7071 51.2998 50.2961 53.9302C52.6122 56.2834 55.3469 58.2237 57.903 60.3397C58.1887 60.5769 58.5102 60.7698 58.9717 61.0927C56.9257 62.3672 55.0082 63.5631 53.0879 64.7561C51.692 65.622 50.3089 66.5121 48.8887 67.3394C48.0657 67.8166 48.0972 68.2896 48.5029 69.0868C49.5374 71.1071 51.3062 72.2087 53.1594 73.3403C57.2172 75.8207 61.1963 78.4311 65.1898 81.0187C65.8571 81.4502 66.44 82.0174 67.0301 82.5575C69.6148 84.9207 69.8019 87.231 67.4344 90.0743C64.8712 93.1477 62.1665 96.1038 59.5232 99.11C59.3003 99.3629 59.0717 99.6115 58.8517 99.8673C56.5899 102.503 56.5613 102.626 53.1379 101.8C36.8354 97.8755 26.2109 87.8797 21.7917 71.6786C18.8827 61.0227 20.4158 50.7197 25.8123 41.1268C30.5345 32.7312 37.4884 26.7346 46.4912 23.1683C54.1252 20.145 61.9579 19.6506 69.9677 21.2251C70.3749 21.3066 70.7721 21.4395 71.4251 21.6166C69.3162 25.8187 67.253 29.9293 65.1384 34.1471Z" fill="#FEBA0F"/>
<path fill-rule="evenodd" clip-rule="evenodd" d="M59.5647 43.1142C65.5227 43.2628 68.2932 47.6749 66.5115 52.7472C65.7628 54.8818 64.3697 56.5477 62.6823 57.988C62.4623 58.1751 62.0265 58.3552 61.8064 58.2637C59.1075 57.135 56.4885 55.8576 54.7839 53.3258C53.298 51.1198 53.0222 48.7437 54.3296 46.4005C55.6383 44.0558 57.8187 43.0885 59.5647 43.1142Z" fill="#FFCE00"/>
</svg>
